<?xml version="1.0" encoding="UTF-8"?><svg id="Layer_3" xmlns="http://www.w3.org/2000/svg" width="65" height="65" viewBox="0 0 65 65"><defs><style>.cls-1{fill:none;stroke:#0d0bab;stroke-miterlimit:10;}</style></defs><rect class="cls-1" x="3.12" y="3.12" width="58.76" height="58.76" rx="17.18" ry="17.18"/><path class="cls-1" d="M32.1,26.28h-7.63c-3.85-.62-6.48-4.1-6.1-7.63.33-3.04,2.83-5.62,6.1-6.1h16.79c2.92.81,5.04,3.26,5.34,6.1.35,3.34-1.87,6.62-5.34,7.63h-9.16Z"/><path class="cls-1" d="M32.1,49.17v-22.89h-7.63c-3.09.48-5.54,2.66-6.1,5.34-.74,3.51,1.83,7.5,6.1,8.39-3.32.55-5.81,3.14-6.1,6.1-.36,3.63,2.63,7.29,6.87,7.63.65,0,2.69-.06,4.58-1.53,1.4-1.09,2.03-2.41,2.29-3.05Z"/><path class="cls-1" d="M34.39,28.57c-2.48,2.44-2.76,6.46-.76,9.16,2.46,3.31,7.7,3.76,10.68.76,2.6-2.61,2.78-7.14,0-9.92-2.76-2.76-7.26-2.61-9.92,0Z"/><line class="cls-1" x1="32.1" y1="12.54" x2="32.1" y2="26.28"/></svg>