<?xml version="1.0" encoding="UTF-8"?><svg id="Layer_3" xmlns="http://www.w3.org/2000/svg" width="65" height="65" viewBox="0 0 65 65"><defs><style>.cls-1{fill:none;stroke:#0d0bab;stroke-miterlimit:10;}</style></defs><rect class="cls-1" x="3.12" y="3.12" width="58.76" height="58.76" rx="17.18" ry="17.18"/><path class="cls-1" d="M15.77,44.33h4.46c.74-2.03,1.49-4.07,2.23-6.1h8.92c.74,2.03,1.49,4.07,2.23,6.1h5.95c-2.97-8.65-5.95-17.3-8.92-25.94h-6.69c-2.73,8.65-5.45,17.3-8.18,25.94Z"/><path class="cls-1" d="M23.95,32.88h5.95c-.99-3.05-1.98-6.1-2.97-9.16-.99,3.05-1.98,6.1-2.97,9.16Z"/><path class="cls-1" d="M41.8,24.49h5.21v19.84h-5.21v-19.84Z"/><ellipse class="cls-1" cx="44.4" cy="19.53" rx="3.37" ry="3.45"/></svg>