<svg width="112" height="92" viewBox="0 0 112 92" fill="none" xmlns="http://www.w3.org/2000/svg">
<g clip-path="url(#clip0_97_184)">
<path d="M11.5796 48.8891C25.494 40.8538 37.8935 28.1011 45.1983 12.8091C46.8273 9.40087 48.0725 4.59322 45.0634 1.59126C42.542 -0.936713 38.5783 -0.169294 36.088 1.96368C32.9441 4.64965 32.3941 9.34445 32.197 13.396C31.9687 18.1811 31.7197 22.9548 31.1386 27.7061C29.9454 37.4907 27.7664 47.1398 24.7158 56.4279C23.2112 61.0098 21.4784 65.5128 19.5381 69.8916C17.7638 73.8754 15.9895 78.4347 12.9804 81.527C10.6769 83.897 5.8416 85.6349 3.75599 81.9784C2.4071 79.6197 3.35133 76.2792 4.84549 74.2704C7.14899 71.1668 11.1023 71.0201 14.4019 72.0471C18.4486 73.2998 21.769 76.1551 24.9337 79.0442C28.0984 81.9333 31.1075 84.7885 34.8118 86.5942C37.852 88.0726 41.1827 88.7498 44.5135 88.5918C51.0504 88.2645 57.577 84.9691 61.7275 79.4053C62.7755 77.9946 63.6782 76.4936 64.3941 74.8459C65.245 72.8935 62.5679 71.1668 61.7067 73.1418C58.8844 79.5972 53.053 83.8518 46.6302 84.9804C43.507 85.5221 40.2592 85.2287 37.2709 84.055C33.5459 82.5991 30.4538 79.6762 27.4655 76.9563C21.7171 71.7085 13.7586 65.3322 5.8831 69.1919C0.798796 71.6747 -2.18953 80.1614 1.9713 84.9917C4.61721 88.0613 8.97519 87.9485 12.2333 86.2218C15.7716 84.3371 17.9921 80.4549 19.7871 76.8209C23.9895 68.3229 27.3721 59.317 29.9039 50.0741C32.4564 40.7183 34.1269 31.0805 34.8844 21.3636C35.0712 19.0275 35.1853 16.6801 35.2683 14.344C35.3513 12.132 35.4551 9.88615 36.1192 7.77575C36.6795 6.00392 37.7067 4.49165 39.3358 3.78066C40.529 3.26152 42.1269 3.12609 43.0712 4.24337C44.3786 5.76692 43.673 8.24975 43.0297 9.90872C42.2618 11.895 41.1516 13.7684 40.1036 15.5854C38.0076 19.2306 35.6626 22.6953 33.079 25.9455C27.8701 32.5137 21.7897 38.2355 15.0349 42.8287C13.3954 43.946 11.7145 44.9956 10.0024 45.9774C8.29037 46.9593 9.80528 49.9274 11.5692 48.9004L11.5796 48.8891Z" fill="#2927CE"/>
<path d="M42.8431 64.9031C40.5084 63.8197 37.8833 63.9777 35.7147 65.4786C33.546 66.9796 32.2075 69.4399 32.4254 72.1823C32.6433 74.9247 34.2724 77.5881 36.607 78.773C38.9416 79.958 41.7536 79.4389 43.6731 77.4413C45.7691 75.2519 46.4332 71.9566 45.2814 69.0675C44.6693 67.5213 42.2827 68.3113 42.3761 69.9252C42.7393 75.9065 48.716 80.5449 54.0285 78.5022C55.9066 77.7799 55.0973 74.5071 53.1984 75.2407C49.8988 76.5046 45.7276 73.8525 45.489 69.9252L42.5837 70.7829C43.2581 72.4644 42.2412 74.5861 40.9338 75.5115C39.3463 76.6401 37.4475 75.8839 36.3683 74.3265C35.2892 72.7691 35.1958 70.6249 36.4825 69.1352C37.6239 67.8147 39.668 67.0812 41.2659 67.826C42.0337 68.1872 42.9364 68.0743 43.393 67.2166C43.7769 66.5056 43.6109 65.2642 42.8327 64.9031H42.8431Z" fill="#2927CE"/>
<path d="M61.2503 89.0204C63.6887 80.2402 65.4942 71.1215 65.3282 61.9012C65.1829 53.358 63.2944 45.0405 60.4721 37.0955C58.5422 31.6445 56.249 26.3403 53.8314 21.1264C52.9287 19.1853 50.2413 20.8894 51.144 22.8305C54.9831 31.1141 58.5733 39.6234 60.607 48.6745C62.371 56.5179 62.6719 64.621 61.5824 72.5999C60.8664 77.859 59.6628 83.0278 58.2516 88.1063C57.6706 90.1941 60.6693 91.0857 61.2503 89.0091V89.0204Z" fill="#2927CE"/>
<path d="M46.8897 36.938C51.2685 31.4645 56.7886 24.2981 64.083 24.2981C66.8534 24.2981 69.8106 25.2913 71.834 27.4242C74.2412 29.9522 74.5006 33.62 73.0272 36.8138C70.9416 41.3506 66.6044 43.777 62.6615 46.0454L64.2283 48.9684C69.4163 45.9664 75.7043 43.4723 81.6083 45.1652C86.3502 46.5194 89.6809 50.6499 91.0609 55.672C94.0493 66.5739 87.5434 77.2388 78.7963 82.1931C75.9948 83.7731 73.0272 84.4954 69.9766 85.2741C66.5733 86.1431 63.2529 86.8541 59.7354 86.8766C57.7328 86.8879 57.7328 90.2736 59.7354 90.2623C63.2114 90.2397 66.5733 89.6077 69.9455 88.75C73.0376 87.96 76.0882 87.2603 78.9935 85.8271C84.4202 83.1637 89.131 78.5366 92.0467 72.8825C94.7652 67.6122 95.6472 61.5405 94.2879 55.6495C92.9909 50.0292 89.6186 45.0072 84.6277 42.7162C77.3748 39.3869 69.2399 42.2309 62.6511 46.0341C60.8768 47.0611 62.4539 49.9728 64.2179 48.9571C68.2957 46.621 72.5188 44.0705 75.0609 39.7255C77.2814 35.9223 77.8729 30.9228 75.5175 27.0179C73.6083 23.8467 70.3087 21.8604 66.926 21.2059C63.0039 20.4385 59.2373 21.3752 55.7821 23.4968C51.3722 26.2167 47.9377 30.4149 44.6485 34.5341C43.3411 36.1705 45.5305 38.5744 46.8482 36.9267L46.8897 36.938Z" fill="#2927CE"/>
<path d="M96.4462 66.5741C94.3606 69.6212 95.284 74.395 97.8781 76.7537C99.3826 78.1305 101.219 78.7061 103.16 78.3111C105.1 77.9161 106.604 76.5392 107.642 74.869C108.815 72.9956 109.271 70.4224 108.482 68.2782C108.182 67.4543 107.424 66.7885 106.563 67.0932C105.837 67.3528 105.152 68.2895 105.473 69.181C105.577 69.4745 105.795 69.9597 105.754 70.2757C105.754 70.2419 105.722 69.8695 105.733 70.1967C105.733 70.2757 105.733 70.366 105.743 70.445C105.743 70.6594 105.743 70.8626 105.722 71.0657C105.722 71.235 105.785 71.235 105.733 70.9867C105.733 71.0432 105.702 71.1673 105.691 71.235C105.66 71.4156 105.608 71.6074 105.567 71.788C105.525 71.9686 105.453 72.1491 105.39 72.3297C105.525 71.9573 105.328 72.4426 105.276 72.5554C105.193 72.7247 105.1 72.894 105.006 73.052C104.934 73.1761 104.695 73.5147 104.903 73.2326C104.685 73.526 104.436 73.8081 104.176 74.0677C104.104 74.1354 104.021 74.2031 103.948 74.2708C103.792 74.4288 104.176 74.1354 103.979 74.237C103.824 74.316 103.689 74.4514 103.543 74.5417C103.409 74.632 103.274 74.6997 103.139 74.7787C102.89 74.9141 103.139 74.7787 103.191 74.7561C103.087 74.8012 102.973 74.8464 102.869 74.8802C102.724 74.9254 102.578 74.9705 102.423 75.0044C102.402 75.0044 102.029 75.0834 102.288 75.0382C102.516 75.0044 102.267 75.0382 102.205 75.0382C102.029 75.0382 101.852 75.0495 101.686 75.0382C101.634 75.0382 101.489 75.0382 101.447 75.0157L101.634 75.0495C101.562 75.0382 101.489 75.027 101.427 75.0044C101.292 74.9705 101.147 74.9367 101.012 74.8915C100.949 74.869 100.877 74.8464 100.815 74.8238C100.524 74.7223 100.887 74.869 100.898 74.869C100.815 74.8915 100.545 74.6771 100.472 74.632C100.316 74.5417 100.182 74.4063 100.036 74.3273C99.8599 74.2257 100.244 74.5417 100.099 74.3837C100.036 74.316 99.9637 74.2595 99.9014 74.1918C99.7977 74.0903 99.6939 73.9774 99.6005 73.8645C99.5279 73.7855 99.3411 73.6275 99.3204 73.5147C99.3515 73.6614 99.476 73.7517 99.3722 73.5824C99.31 73.4808 99.2477 73.3906 99.1958 73.289C99.0298 73.0068 98.9053 72.7134 98.76 72.42C98.6459 72.2056 98.8846 72.815 98.7704 72.4426C98.7497 72.3636 98.7185 72.2959 98.6978 72.2281C98.6355 72.0476 98.5837 71.8557 98.5421 71.6639C98.5006 71.472 98.4695 71.2802 98.428 71.0996C98.3865 70.8287 98.428 71.2012 98.4384 71.2012C98.4073 71.1899 98.4176 70.8852 98.4176 70.8513C98.4176 70.6594 98.4176 70.4676 98.4176 70.2757C98.4176 70.1967 98.428 70.1177 98.428 70.05C98.4384 69.7115 98.3554 70.4112 98.428 70.05C98.5006 69.6889 98.5837 69.3503 98.6874 69.0118C98.7497 68.786 98.511 69.3729 98.6874 69.0456C98.7289 68.9666 98.7704 68.8763 98.8119 68.786C98.9053 68.5942 99.0195 68.4249 99.1336 68.2556C99.6213 67.5446 99.2581 66.3371 98.5733 65.9421C97.7536 65.4794 96.965 65.7841 96.4462 66.5515V66.5741Z" fill="#2927CE"/>
<path d="M101.748 58.4371L99.9741 58.3693C99.1959 58.3355 98.5422 59.0352 98.4488 59.8365C98.3554 60.6377 98.8016 61.5519 99.559 61.6986C103.025 62.3531 106.501 63.019 109.966 63.6736C110.765 63.8203 111.678 63.4366 111.886 62.4886C112.062 61.6647 111.658 60.57 110.796 60.4007C107.331 59.7462 103.855 59.0803 100.389 58.4258L99.9741 61.755L101.748 61.8227C102.558 61.8566 103.346 61.0215 103.305 60.1299C103.263 59.1819 102.62 58.4709 101.748 58.4371Z" fill="#2927CE"/>
<path d="M105.899 57.4438C103.606 54.5998 101.313 51.7558 99.0091 48.9119C98.4695 48.246 97.3489 48.2686 96.8093 48.9119C96.2075 49.6228 96.2386 50.5934 96.8093 51.3044C99.1025 54.1484 101.396 56.9923 103.699 59.8363C104.239 60.5021 105.359 60.4796 105.899 59.8363C106.501 59.1253 106.47 58.1547 105.899 57.4438Z" fill="#2927CE"/>
<path d="M106.324 58.2558C108.067 55.8294 109.811 53.403 111.554 50.9766C111.824 50.6042 112.01 50.2656 112.01 49.7803C112.01 49.3628 111.844 48.8662 111.554 48.584C110.994 48.0311 109.883 47.8392 109.354 48.584C107.611 51.0104 105.868 53.4368 104.125 55.8632C103.855 56.2357 103.668 56.5742 103.668 57.0595C103.668 57.4771 103.834 57.9736 104.125 58.2558C104.685 58.8088 105.795 59.0006 106.324 58.2558Z" fill="#2927CE"/>
<path d="M102.008 41.3503C102.537 39.1608 103.99 34.9288 100.7 34.4548C99.1751 34.2291 97.4215 34.94 96.4254 36.2153C95.2529 37.7163 95.0661 39.7364 95.8132 41.5082C97.3177 45.1083 101.427 45.7403 104.384 44.0136C107.154 42.3885 108.742 39.2398 109.095 35.9219C109.447 32.6039 108.296 28.7668 105.878 26.4533C105.245 25.8552 104.301 25.7762 103.678 26.4533C103.108 27.074 103.045 28.2364 103.678 28.8458C106.397 31.4415 106.885 36.2153 104.695 39.3753C103.658 40.865 101.499 42.2644 99.7976 41.3277C98.3761 40.5377 97.8262 38.3821 99.725 37.8856C100.047 37.7953 99.9222 37.8517 100.254 37.8066C100.431 37.784 100.316 37.7727 100.296 37.8066C100.171 37.784 100.182 37.784 100.306 37.8179L100.109 37.7276C99.974 37.6034 99.9014 37.5244 99.7976 37.3777C99.9637 37.6373 99.6939 37.1069 99.7561 37.2987C99.8184 37.5019 99.7561 36.9602 99.7354 37.1859C99.725 37.2874 99.7354 37.4003 99.725 37.5132C99.7354 37.1294 99.6731 37.7727 99.6524 37.8969C99.6005 38.1564 99.5382 38.416 99.4656 38.6869C99.3203 39.285 99.1543 39.8831 99.0091 40.4813C98.5006 42.5917 101.499 43.4945 102.008 41.3841V41.3503Z" fill="#2927CE"/>
<path d="M90.4903 80.7823C86.7964 82.0237 85.0843 87.6778 88.2594 90.5782C89.6602 91.8648 91.6939 92.3726 93.4475 91.7293C95.3048 91.0409 96.4462 89.3029 96.6329 87.2151C96.8197 85.1273 95.8236 82.8137 94.0493 81.8657C92.5032 81.0419 90.8846 83.0846 92.1608 84.5291C94.9624 87.6778 100.254 86.9555 102.267 83.1636C103.274 81.2789 100.586 79.5635 99.5798 81.4594C99.0713 82.4074 98.1686 82.9943 97.1102 83.1297C96.5914 83.1974 96.1556 83.1636 95.6057 82.983C95.5435 82.9604 95.0869 82.7686 95.3567 82.904C95.2218 82.8363 95.0973 82.7686 94.9728 82.6783C94.8483 82.588 94.7237 82.509 94.6096 82.4187C94.8379 82.6106 94.4125 82.193 94.3709 82.1479L92.4825 84.8113C92.6485 84.9016 92.8249 84.9918 92.9702 85.1273C92.7211 84.9128 93.0532 85.2514 93.0739 85.274C93.1881 85.4207 93.1984 85.432 93.0947 85.2853C93.1466 85.3643 93.1985 85.4545 93.2503 85.5448C93.2815 85.6125 93.4578 86.0075 93.3437 85.6915C93.4163 85.8834 93.4579 86.0865 93.5097 86.2897C93.6031 86.6282 93.5305 86.0752 93.5409 86.459C93.5409 86.6395 93.5409 86.8201 93.5409 87.0007C93.5409 87.0797 93.5409 87.1587 93.5201 87.2377C93.5409 87.0458 93.5409 87.0458 93.4994 87.2377C93.4579 87.3844 93.4267 87.5311 93.3748 87.6778C93.4786 87.3505 93.2503 87.8922 93.2192 87.9599C93.0532 88.2647 93.3645 87.8697 93.1051 88.0954C93.0324 88.1744 92.9598 88.2421 92.8872 88.3098C93.0013 88.2082 92.9909 88.2195 92.8353 88.3324C92.7834 88.3662 92.3995 88.5581 92.6796 88.4452C92.5136 88.5129 92.3476 88.5581 92.1816 88.6032C92.0674 88.6258 92.0882 88.6258 92.2335 88.6032C92.1297 88.6145 92.0363 88.6258 91.9326 88.6258C91.8703 88.6258 91.4034 88.6032 91.5383 88.6258C91.1336 88.5806 90.5214 88.2985 90.2724 88.0389C90.2205 87.9938 89.8781 87.5424 90.0234 87.7794C89.9403 87.6439 89.8573 87.5085 89.7951 87.3618C89.8988 87.5988 89.7328 87.1135 89.7121 87.0458C89.6913 86.9668 89.6809 86.8765 89.6602 86.7975C89.6809 86.9668 89.6809 86.9555 89.6602 86.7411C89.6602 86.5718 89.6602 86.4025 89.6706 86.2333C89.6498 86.538 89.7432 85.9173 89.7639 85.8495C89.8573 85.511 89.8885 85.432 90.1375 85.0144C90.3865 84.5968 90.8638 84.2131 91.2892 84.0664C93.1985 83.4231 92.3787 80.1503 90.4591 80.8049L90.4903 80.7823Z" fill="#2927CE"/>
</g>
<defs>
<clipPath id="clip0_97_184">
<rect width="112" height="92" fill="white"/>
</clipPath>
</defs>
</svg>
