<?xml version="1.0" encoding="UTF-8"?><svg id="Layer_3" xmlns="http://www.w3.org/2000/svg" width="65" height="65" viewBox="0 0 65 65"><defs><style>.cls-1{fill:none;stroke:#0d0bab;stroke-miterlimit:10;}</style></defs><path class="cls-1" d="M34.82,38.73v4.52c1,.34,7.09,2.34,11.16-.75.58-.44,1.81-1.38,2.23-3.01.47-1.83-.23-3.93-1.49-5.27-2.33-2.48-5.85-1.53-6.69-3.77-.06-.16-.36-.95,0-1.51,1.05-1.64,6.63.45,7.44.75v-4.52c-2.52-.77-4.61-.82-5.95-.75-2.25.12-3.91.2-5.21,1.51-1.64,1.65-1.51,4.05-1.49,4.52.03.56.13,2.45,1.49,3.77.57.56,1.37.87,2.97,1.51,1.38.55,2.15.69,2.97,1.51.28.28.89.9.74,1.51-.11.43-.56.66-.74.75-1.66.84-6.63-.53-7.44-.75Z"/><path class="cls-1" d="M14,44.01v-25.61c8.4-1.23,15.36.68,17.11,4.52.23.51.77,1.93.74,3.77-.06,3.89-2.6,6.42-2.97,6.78-3.88,3.74-9.34,2.35-9.67,2.26v8.29h-5.21Z"/><path class="cls-1" d="M19.21,31.2v-7.53c3.05-.81,5.81.3,6.69,2.26.03.08.66,1.54,0,3.01-.88,1.96-3.64,3.07-6.69,2.26Z"/><rect class="cls-1" x="3.12" y="3.12" width="58.76" height="58.76" rx="17.18" ry="17.18"/></svg>