<?xml version="1.0" encoding="UTF-8"?><svg id="Layer_3" xmlns="http://www.w3.org/2000/svg" width="65" height="65" viewBox="0 0 65 65"><defs><style>.cls-1{fill:none;stroke:#0d0bab;stroke-miterlimit:10;}</style></defs><rect class="cls-1" x="3.12" y="3.12" width="58.76" height="58.76" rx="17.18" ry="17.18"/><path class="cls-1" d="M17.09,44.68v-25.61c8.3-1.23,15.17.68,16.89,4.52.23.51.76,1.93.73,3.77-.06,3.89-2.56,6.42-2.94,6.78-3.83,3.74-9.23,2.35-9.55,2.26v8.29h-5.14Z"/><path class="cls-1" d="M22.23,31.87v-7.53c3.01-.81,5.74.3,6.61,2.26.03.08.65,1.54,0,3.01-.87,1.96-3.6,3.07-6.61,2.26Z"/><path class="cls-1" d="M37.48,24.88v19.59h5.88v-12.81c.36-.4,1.08-1.1,2.2-1.51,1.7-.62,3.19-.17,3.67,0v-5.27c-.47-.16-1.93-.59-3.67,0-.47.16-1.9.72-2.94,2.26v-2.26h-5.14Z"/></svg>