<?xml version="1.0" encoding="UTF-8"?><svg id="Layer_3" xmlns="http://www.w3.org/2000/svg" width="65" height="65" viewBox="0 0 65 65"><defs><style>.cls-1{fill:#ea2828;}.cls-1,.cls-2{stroke:#0d0bab;stroke-miterlimit:10;}.cls-2{fill:none;}</style></defs><path class="cls-1" d="M38.77,53.11V12.23l11.9,5.61v29.65l-11.9,5.61ZM40.26,13.44v38.46l9.67-4.87v-28.73l-9.67-4.87Z"/><path class="cls-1" d="M12.8,43.07l-2.83-3.4c-.41-.49-.36-1.23.12-1.65l28.28-25.26c.74-.66,1.89-.12,1.89.89v9.29c0,.37-.17.72-.46.95l-25.45,19.37c-.48.37-1.15.29-1.54-.18ZM11.04,39.75l1.88,2.25c.39.47,1.06.55,1.54.18l24.57-18.7c.29-.22.46-.57.46-.95v-7.17c0-1.01-1.15-1.55-1.89-.89l-26.45,23.62c-.47.42-.53,1.16-.12,1.65Z"/><path class="cls-1" d="M38.38,52.59L10.2,27.51c-.47-.42-.53-1.15-.12-1.64l2.82-3.38c.39-.46,1.06-.54,1.54-.18l25.36,19.23c.29.22.46.57.46.94v9.22c0,1-1.14,1.54-1.88.88ZM11.27,27.43l26.35,23.45c.74.65,1.88.12,1.88-.88v-7.12c0-.37-.17-.72-.46-.94L14.55,23.37c-.48-.36-1.15-.29-1.54.18l-1.87,2.24c-.41.49-.35,1.22.12,1.64Z"/><rect class="cls-2" x="2.12" y="3.12" width="58.76" height="58.76" rx="17.18" ry="17.18"/></svg>