<?xml version="1.0" encoding="UTF-8"?><svg id="Layer_3" xmlns="http://www.w3.org/2000/svg" width="65" height="65" viewBox="0 0 65 65"><defs><style>.cls-1,.cls-2,.cls-3{fill:none;}.cls-1,.cls-4{stroke-width:0px;}.cls-2{stroke-width:2px;}.cls-2,.cls-3{stroke:#0d0bab;stroke-miterlimit:10;}.cls-4{fill:#0d0bab;}</style></defs><path class="cls-2" d="M39.77,52.59V12.75c0-.24.25-.4.47-.3l11.24,5.3c.12.05.19.17.19.3v29.23c0,.13-.07.24-.19.3l-11.24,5.3c-.22.1-.47-.06-.47-.3Z"/><path class="cls-1" d="M10.42,38.38c-.27.25-.31.68-.07.96l2.83,3.4c.22.26.59.31.86.1l6.81-5.18-4.82-4.29-5.61,5.01Z"/><path class="cls-1" d="M38.71,52.22c.19.17.43.21.66.1.24-.11.39-.34.39-.61v-9.23c0-.21-.1-.42-.26-.54l-11.33-8.59-5.74,4.37,16.29,14.5Z"/><polygon class="cls-1" points="16.78 32.7 21.66 37.05 27.34 32.73 21.62 28.39 16.78 32.7"/><path class="cls-1" d="M39.49,23.48c.17-.13.27-.33.27-.55v-9.29c0-.28-.15-.51-.39-.62-.05-.02-.15-.06-.26-.06-.12,0-.26.04-.41.16l-16.33,14.58,5.79,4.39,11.33-8.62Z"/><path class="cls-1" d="M14.13,22.71c-.27-.2-.63-.16-.85.1l-2.82,3.38c-.23.28-.21.71.07.95l5.5,4.9,4.77-4.26-6.67-5.06Z"/><path class="cls-4" d="M14.04,42.85c-.27.21-.64.16-.86-.1l-2.83-3.4c-.24-.29-.21-.72.07-.96l5.61-5.01-.75-.67-5.52,4.93c-.67.6-.75,1.65-.17,2.35l2.83,3.4c.32.39.79.59,1.25.59.34,0,.69-.11.98-.33l6.97-5.3-.76-.68-6.81,5.18Z"/><path class="cls-4" d="M40.76,22.93v-9.29c0-.68-.38-1.26-.98-1.54-.59-.27-1.25-.16-1.74.27l-16.47,14.71.81.62,16.33-14.58c.14-.13.28-.16.41-.16.11,0,.21.03.26.06.25.11.39.34.39.62v9.29c0,.22-.1.42-.27.55l-11.33,8.62.83.63,11.11-8.45c.41-.31.66-.82.66-1.34Z"/><polygon class="cls-4" points="16.03 33.37 20.85 37.66 21.66 37.05 16.78 32.7 16.03 33.37"/><path class="cls-4" d="M39.5,41.94c.17.13.26.33.26.54v9.23c0,.28-.14.5-.39.61-.23.1-.48.06-.66-.1l-16.29-14.5-.81.62,16.43,14.63c.31.27.69.42,1.07.42.22,0,.45-.05.66-.14.6-.27.98-.86.98-1.53v-9.23c0-.52-.25-1.02-.66-1.34l-11.11-8.42-.83.63,11.33,8.59Z"/><polygon class="cls-4" points="27.34 32.73 28.17 32.1 22.38 27.71 21.62 28.39 27.34 32.73"/><path class="cls-4" d="M10.53,27.14c-.27-.24-.3-.67-.07-.95l2.82-3.38c.22-.26.58-.3.85-.1l6.67,5.06.76-.68-6.83-5.18c-.69-.52-1.67-.41-2.22.26l-2.82,3.38c-.58.69-.5,1.74.17,2.34l5.42,4.82.75-.67-5.5-4.9Z"/><polygon class="cls-4" points="27.34 32.73 28.17 33.35 28.99 32.73 28.17 32.1 27.34 32.73"/><polygon class="cls-4" points="21.66 37.05 20.85 37.66 21.61 38.34 22.42 37.73 21.66 37.05"/><polygon class="cls-4" points="21.62 28.39 22.38 27.71 21.56 27.09 20.8 27.77 21.62 28.39"/><polygon class="cls-4" points="16.78 32.7 16.03 32.03 15.28 32.71 16.03 33.37 16.78 32.7"/><rect class="cls-3" x="3.12" y="3.12" width="58.76" height="58.76" rx="17.18" ry="17.18"/></svg>